<?xml version="1.0" encoding="UTF-8" standalone="no"?>
<!DOCTYPE svg PUBLIC "-//W3C//DTD SVG 1.1//EN"
 "http://www.w3.org/Graphics/SVG/1.1/DTD/svg11.dtd">
<!-- Generated by graphviz version 2.38.0 (20140413.2041)
 -->
<!-- Title: G Pages: 1 -->
<svg width="2055pt" height="1436pt"
 viewBox="0.00 0.00 2054.87 1436.00" xmlns="http://www.w3.org/2000/svg" xmlns:xlink="http://www.w3.org/1999/xlink">
<g id="graph0" class="graph" transform="scale(1 1) rotate(0) translate(4 1432)">
<title>G</title>
<polygon fill="white" stroke="none" points="-4,4 -4,-1432 2050.87,-1432 2050.87,4 -4,4"/>
<g id="clust1" class="cluster"><title>cluster_Global</title>
<path fill="none" stroke="gray" d="M86.5369,-314C86.5369,-314 2026.87,-314 2026.87,-314 2032.87,-314 2038.87,-320 2038.87,-326 2038.87,-326 2038.87,-1408 2038.87,-1408 2038.87,-1414 2032.87,-1420 2026.87,-1420 2026.87,-1420 86.5369,-1420 86.5369,-1420 80.5369,-1420 74.5369,-1414 74.5369,-1408 74.5369,-1408 74.5369,-326 74.5369,-326 74.5369,-320 80.5369,-314 86.5369,-314"/>
<text text-anchor="middle" x="1056.7" y="-1407.2" font-family="Times,serif" font-size="11.00" fill="gray">Global</text>
</g>
<g id="clust2" class="cluster"><title>cluster_\Reaction</title>
<path fill="none" stroke="gray" d="M94.5369,-322C94.5369,-322 2018.87,-322 2018.87,-322 2024.87,-322 2030.87,-328 2030.87,-334 2030.87,-334 2030.87,-1380 2030.87,-1380 2030.87,-1386 2024.87,-1392 2018.87,-1392 2018.87,-1392 94.5369,-1392 94.5369,-1392 88.5369,-1392 82.5369,-1386 82.5369,-1380 82.5369,-1380 82.5369,-334 82.5369,-334 82.5369,-328 88.5369,-322 94.5369,-322"/>
<text text-anchor="middle" x="1056.7" y="-1379.2" font-family="Times,serif" font-size="11.00" fill="gray">Reaction</text>
</g>
<g id="clust3" class="cluster"><title>cluster_\Reaction\Base</title>
<path fill="none" stroke="gray" d="M102.537,-330C102.537,-330 2010.87,-330 2010.87,-330 2016.87,-330 2022.87,-336 2022.87,-342 2022.87,-342 2022.87,-1218 2022.87,-1218 2022.87,-1224 2016.87,-1230 2010.87,-1230 2010.87,-1230 102.537,-1230 102.537,-1230 96.5369,-1230 90.5369,-1224 90.5369,-1218 90.5369,-1218 90.5369,-342 90.5369,-342 90.5369,-336 96.5369,-330 102.537,-330"/>
<text text-anchor="middle" x="1056.7" y="-1217.2" font-family="Times,serif" font-size="11.00" fill="gray">Base</text>
</g>
<g id="clust4" class="cluster"><title>cluster_\Reaction\Base\Logger</title>
<path fill="none" stroke="gray" d="M1542.78,-708C1542.78,-708 1946.87,-708 1946.87,-708 1952.87,-708 1958.87,-714 1958.87,-720 1958.87,-720 1958.87,-822 1958.87,-822 1958.87,-828 1952.87,-834 1946.87,-834 1946.87,-834 1542.78,-834 1542.78,-834 1536.78,-834 1530.78,-828 1530.78,-822 1530.78,-822 1530.78,-720 1530.78,-720 1530.78,-714 1536.78,-708 1542.78,-708"/>
<text text-anchor="middle" x="1744.82" y="-821.2" font-family="Times,serif" font-size="11.00" fill="gray">Logger</text>
</g>
<g id="clust5" class="cluster"><title>cluster_\Reaction\Cache</title>
<path fill="none" stroke="gray" d="M529.702,-1238C529.702,-1238 1970.37,-1238 1970.37,-1238 1976.37,-1238 1982.37,-1244 1982.37,-1250 1982.37,-1250 1982.37,-1352 1982.37,-1352 1982.37,-1358 1976.37,-1364 1970.37,-1364 1970.37,-1364 529.702,-1364 529.702,-1364 523.702,-1364 517.702,-1358 517.702,-1352 517.702,-1352 517.702,-1250 517.702,-1250 517.702,-1244 523.702,-1238 529.702,-1238"/>
<text text-anchor="middle" x="1250.03" y="-1351.2" font-family="Times,serif" font-size="11.00" fill="gray">Cache</text>
</g>
<!-- \\Reaction\\Base\\Logger\\Debugger -->
<g id="node1" class="node"><title>\\Reaction\\Base\\Logger\\Debugger</title>
<polygon fill="none" stroke="black" points="1940.87,-806 1869.87,-806 1869.87,-770 1940.87,-770 1940.87,-806"/>
<text text-anchor="middle" x="1905.37" y="-785.2" font-family="Courier,monospace" font-size="11.00">Debugger</text>
</g>
<!-- \\Reaction\\Base\\Logger\\StdioLogger -->
<g id="node2" class="node"><title>\\Reaction\\Base\\Logger\\StdioLogger</title>
<polygon fill="none" stroke="black" points="1950.87,-752 1859.87,-752 1859.87,-716 1950.87,-716 1950.87,-752"/>
<text text-anchor="middle" x="1905.37" y="-731.2" font-family="Courier,monospace" font-size="11.00">StdioLogger</text>
</g>
<!-- \\Reaction\\Base\\Logger\\LoggerInterface -->
<g id="node3" class="node"><title>\\Reaction\\Base\\Logger\\LoggerInterface</title>
<polygon fill="none" stroke="black" points="1656.78,-752 1538.78,-752 1538.78,-716 1656.78,-716 1656.78,-752"/>
<text text-anchor="middle" x="1597.78" y="-731.2" font-family="Courier,monospace" font-size="11.00">LoggerInterface</text>
</g>
<!-- \\Reaction\\Base\\Logger\\StdioLogger&#45;&gt;\\Reaction\\Base\\Logger\\LoggerInterface -->
<g id="edge17" class="edge"><title>\\Reaction\\Base\\Logger\\StdioLogger&#45;&gt;\\Reaction\\Base\\Logger\\LoggerInterface</title>
<path fill="none" stroke="black" stroke-dasharray="1,5" d="M1859.6,-734C1809.01,-734 1726.06,-734 1667.31,-734"/>
<polygon fill="none" stroke="black" points="1667,-730.5 1657,-734 1667,-737.5 1667,-730.5"/>
</g>
<!-- \\Psr\\Log\\AbstractLogger -->
<g id="node46" class="node"><title>\\Psr\\Log\\AbstractLogger</title>
<ellipse fill="none" stroke="black" cx="1597.78" cy="-288" rx="126.178" ry="18"/>
<text text-anchor="middle" x="1597.78" y="-284.3" font-family="Times,serif" font-size="14.00" fill="gray">\Psr\Log\AbstractLogger</text>
</g>
<!-- \\Reaction\\Base\\Logger\\StdioLogger&#45;&gt;\\Psr\\Log\\AbstractLogger -->
<g id="edge16" class="edge"><title>\\Reaction\\Base\\Logger\\StdioLogger&#45;&gt;\\Psr\\Log\\AbstractLogger</title>
<path fill="none" stroke="black" d="M1859.83,-735.962C1837.73,-734.49 1812.32,-728.71 1795.87,-712 1673.43,-587.638 1840.26,-456.027 1723.87,-326 1715.88,-317.082 1705.88,-310.226 1695.03,-304.96"/>
<polygon fill="none" stroke="black" points="1696.31,-301.698 1685.74,-300.901 1693.5,-308.113 1696.31,-301.698"/>
</g>
<!-- \\Psr\\Log\\LoggerInterface -->
<g id="node49" class="node"><title>\\Psr\\Log\\LoggerInterface</title>
<ellipse fill="none" stroke="black" cx="1160.51" cy="-288" rx="128.077" ry="18"/>
<text text-anchor="middle" x="1160.51" y="-284.3" font-family="Times,serif" font-size="14.00" fill="gray">\Psr\Log\LoggerInterface</text>
</g>
<!-- \\Reaction\\Base\\Logger\\LoggerInterface&#45;&gt;\\Psr\\Log\\LoggerInterface -->
<g id="edge40" class="edge"><title>\\Reaction\\Base\\Logger\\LoggerInterface&#45;&gt;\\Psr\\Log\\LoggerInterface</title>
<path fill="none" stroke="black" d="M1538.59,-737.392C1514.91,-735.64 1489.08,-729.217 1471.69,-712 1347.65,-589.238 1524.69,-447.773 1399.69,-326 1369.28,-296.38 1325.61,-284.26 1283.94,-280.425"/>
<polygon fill="none" stroke="black" points="1284.21,-276.935 1273.97,-279.657 1283.67,-283.914 1284.21,-276.935"/>
</g>
<!-- \\Reaction\\Base\\ExceptionHandler -->
<g id="node4" class="node"><title>\\Reaction\\Base\\ExceptionHandler</title>
<polygon fill="none" stroke="black" points="1223.01,-932 1098.01,-932 1098.01,-896 1223.01,-896 1223.01,-932"/>
<text text-anchor="middle" x="1160.51" y="-911.2" font-family="Courier,monospace" font-size="11.00">ExceptionHandler</text>
</g>
<!-- \\Reaction\\Base\\BaseObject -->
<g id="node6" class="node"><title>\\Reaction\\Base\\BaseObject</title>
<polygon fill="none" stroke="black" points="650.202,-1094 566.202,-1094 566.202,-1058 650.202,-1058 650.202,-1094"/>
<text text-anchor="middle" x="608.202" y="-1073.2" font-family="Courier,monospace" font-size="11.00">BaseObject</text>
</g>
<!-- \\Reaction\\Base\\ExceptionHandler&#45;&gt;\\Reaction\\Base\\BaseObject -->
<g id="edge1" class="edge"><title>\\Reaction\\Base\\ExceptionHandler&#45;&gt;\\Reaction\\Base\\BaseObject</title>
<path fill="none" stroke="black" d="M1097.89,-916.002C1049.25,-918.767 980.039,-925.348 921.331,-941 820.34,-967.925 709.764,-1022.17 651.153,-1053.07"/>
<polygon fill="none" stroke="black" points="649.393,-1050.04 642.202,-1057.82 652.675,-1056.23 649.393,-1050.04"/>
</g>
<!-- \\Reaction\\Base\\JsExpression -->
<g id="node5" class="node"><title>\\Reaction\\Base\\JsExpression</title>
<polygon fill="none" stroke="black" points="1209.51,-1202 1111.51,-1202 1111.51,-1166 1209.51,-1166 1209.51,-1202"/>
<text text-anchor="middle" x="1160.51" y="-1181.2" font-family="Courier,monospace" font-size="11.00">JsExpression</text>
</g>
<!-- \\Reaction\\Base\\JsExpression&#45;&gt;\\Reaction\\Base\\BaseObject -->
<g id="edge2" class="edge"><title>\\Reaction\\Base\\JsExpression&#45;&gt;\\Reaction\\Base\\BaseObject</title>
<path fill="none" stroke="black" d="M1111.31,-1180.54C1062.99,-1176.61 986.594,-1169.1 921.331,-1157 828.257,-1139.74 721.965,-1109.94 660.521,-1091.7"/>
<polygon fill="none" stroke="black" points="661.269,-1088.27 650.686,-1088.77 659.267,-1094.98 661.269,-1088.27"/>
</g>
<!-- \\Reaction\\Base\\Configurable -->
<g id="node20" class="node"><title>\\Reaction\\Base\\Configurable</title>
<polygon fill="none" stroke="black" points="196.537,-1094 98.5369,-1094 98.5369,-1058 196.537,-1058 196.537,-1094"/>
<text text-anchor="middle" x="147.537" y="-1073.2" font-family="Courier,monospace" font-size="11.00">Configurable</text>
</g>
<!-- \\Reaction\\Base\\BaseObject&#45;&gt;\\Reaction\\Base\\Configurable -->
<g id="edge3" class="edge"><title>\\Reaction\\Base\\BaseObject&#45;&gt;\\Reaction\\Base\\Configurable</title>
<path fill="none" stroke="black" stroke-dasharray="1,5" d="M566.095,-1076C484.393,-1076 301.36,-1076 207.103,-1076"/>
<polygon fill="none" stroke="black" points="206.887,-1072.5 196.886,-1076 206.886,-1079.5 206.887,-1072.5"/>
</g>
<!-- \\Reaction\\Base\\ErrorHandler -->
<g id="node7" class="node"><title>\\Reaction\\Base\\ErrorHandler</title>
<polygon fill="none" stroke="black" points="1954.37,-1067 1856.37,-1067 1856.37,-1031 1954.37,-1031 1954.37,-1067"/>
<text text-anchor="start" x="1871.37" y="-1052.2" font-family="Courier,monospace" font-size="11.00">«abstract»</text>
<text text-anchor="start" x="1864.37" y="-1040.2" font-family="Courier,monospace" font-size="11.00">ErrorHandler</text>
</g>
<!-- \\Reaction\\Base\\RequestAppComponent -->
<g id="node11" class="node"><title>\\Reaction\\Base\\RequestAppComponent</title>
<polygon fill="none" stroke="black" points="1670.28,-932 1525.28,-932 1525.28,-896 1670.28,-896 1670.28,-932"/>
<text text-anchor="middle" x="1597.78" y="-911.2" font-family="Courier,monospace" font-size="11.00">RequestAppComponent</text>
</g>
<!-- \\Reaction\\Base\\ErrorHandler&#45;&gt;\\Reaction\\Base\\RequestAppComponent -->
<g id="edge4" class="edge"><title>\\Reaction\\Base\\ErrorHandler&#45;&gt;\\Reaction\\Base\\RequestAppComponent</title>
<path fill="none" stroke="black" d="M1880.02,-1030.86C1846.55,-1006.79 1783.65,-964.594 1723.87,-941 1710.18,-935.599 1695.21,-931.186 1680.53,-927.611"/>
<polygon fill="none" stroke="black" points="1680.96,-924.119 1670.43,-925.268 1679.38,-930.937 1680.96,-924.119"/>
</g>
<!-- \\Reaction\\Base\\ErrorHandlerInterface -->
<g id="node26" class="node"><title>\\Reaction\\Base\\ErrorHandlerInterface</title>
<polygon fill="none" stroke="black" points="1676.78,-1148 1518.78,-1148 1518.78,-1112 1676.78,-1112 1676.78,-1148"/>
<text text-anchor="middle" x="1597.78" y="-1127.2" font-family="Courier,monospace" font-size="11.00">ErrorHandlerInterface</text>
</g>
<!-- \\Reaction\\Base\\ErrorHandler&#45;&gt;\\Reaction\\Base\\ErrorHandlerInterface -->
<g id="edge5" class="edge"><title>\\Reaction\\Base\\ErrorHandler&#45;&gt;\\Reaction\\Base\\ErrorHandlerInterface</title>
<path fill="none" stroke="black" stroke-dasharray="1,5" d="M1856.01,-1064.59C1819.82,-1075.98 1769.01,-1091.39 1723.87,-1103 1711.98,-1106.06 1699.4,-1109.05 1686.98,-1111.87"/>
<polygon fill="none" stroke="black" points="1686.06,-1108.48 1677.07,-1114.08 1687.59,-1115.32 1686.06,-1108.48"/>
</g>
<!-- \\Reaction\\Base\\Model -->
<g id="node8" class="node"><title>\\Reaction\\Base\\Model</title>
<polygon fill="none" stroke="black" points="1624.78,-428 1570.78,-428 1570.78,-392 1624.78,-392 1624.78,-428"/>
<text text-anchor="middle" x="1597.78" y="-407.2" font-family="Courier,monospace" font-size="11.00">Model</text>
</g>
<!-- \\Reaction\\Base\\Component -->
<g id="node10" class="node"><title>\\Reaction\\Base\\Component</title>
<polygon fill="none" stroke="black" points="1199.01,-824 1122.01,-824 1122.01,-788 1199.01,-788 1199.01,-824"/>
<text text-anchor="middle" x="1160.51" y="-803.2" font-family="Courier,monospace" font-size="11.00">Component</text>
</g>
<!-- \\Reaction\\Base\\Model&#45;&gt;\\Reaction\\Base\\Component -->
<g id="edge6" class="edge"><title>\\Reaction\\Base\\Model&#45;&gt;\\Reaction\\Base\\Component</title>
<path fill="none" stroke="black" d="M1576.94,-428.044C1506.84,-491.824 1270.58,-706.765 1189.28,-780.739"/>
<polygon fill="none" stroke="black" points="1186.5,-778.531 1181.46,-787.85 1191.21,-783.709 1186.5,-778.531"/>
</g>
<!-- \\Reaction\\Base\\Arrayable -->
<g id="node22" class="node"><title>\\Reaction\\Base\\Arrayable</title>
<polygon fill="none" stroke="black" points="1199.01,-428 1122.01,-428 1122.01,-392 1199.01,-392 1199.01,-428"/>
<text text-anchor="middle" x="1160.51" y="-407.2" font-family="Courier,monospace" font-size="11.00">Arrayable</text>
</g>
<!-- \\Reaction\\Base\\Model&#45;&gt;\\Reaction\\Base\\Arrayable -->
<g id="edge11" class="edge"><title>\\Reaction\\Base\\Model&#45;&gt;\\Reaction\\Base\\Arrayable</title>
<path fill="none" stroke="black" stroke-dasharray="1,5" d="M1570.53,-410C1499.21,-410 1301.05,-410 1209.28,-410"/>
<polygon fill="none" stroke="black" points="1209.16,-406.5 1199.16,-410 1209.16,-413.5 1209.16,-406.5"/>
</g>
<!-- \\Reaction\\Base\\StaticInstanceInterface -->
<g id="node27" class="node"><title>\\Reaction\\Base\\StaticInstanceInterface</title>
<polygon fill="none" stroke="black" points="1246.51,-482 1074.51,-482 1074.51,-446 1246.51,-446 1246.51,-482"/>
<text text-anchor="middle" x="1160.51" y="-461.2" font-family="Courier,monospace" font-size="11.00">StaticInstanceInterface</text>
</g>
<!-- \\Reaction\\Base\\Model&#45;&gt;\\Reaction\\Base\\StaticInstanceInterface -->
<g id="edge7" class="edge"><title>\\Reaction\\Base\\Model&#45;&gt;\\Reaction\\Base\\StaticInstanceInterface</title>
<path fill="none" stroke="black" stroke-dasharray="1,5" d="M1570.66,-413.775C1532.95,-419.181 1461.03,-429.322 1399.69,-437 1352.66,-442.886 1300.34,-448.878 1256.75,-453.717"/>
<polygon fill="none" stroke="black" points="1256.28,-450.247 1246.72,-454.826 1257.05,-457.205 1256.28,-450.247"/>
</g>
<!-- \\IteratorAggregate -->
<g id="node41" class="node"><title>\\IteratorAggregate</title>
<ellipse fill="none" stroke="black" cx="1160.51" cy="-234" rx="98.5829" ry="18"/>
<text text-anchor="middle" x="1160.51" y="-230.3" font-family="Times,serif" font-size="14.00" fill="gray">\IteratorAggregate</text>
</g>
<!-- \\Reaction\\Base\\Model&#45;&gt;\\IteratorAggregate -->
<g id="edge8" class="edge"><title>\\Reaction\\Base\\Model&#45;&gt;\\IteratorAggregate</title>
<path fill="none" stroke="black" stroke-dasharray="1,5" d="M1570.62,-410.281C1543.48,-409.312 1500.96,-404.127 1471.69,-383 1420.63,-346.156 1452.52,-295.254 1399.69,-261 1358.46,-234.264 1304.58,-226.449 1258.51,-225.787"/>
<polygon fill="none" stroke="black" points="1258.51,-222.287 1248.5,-225.752 1258.49,-229.287 1258.51,-222.287"/>
</g>
<!-- \\Reaction\\I18n\\TranslatorInterface -->
<g id="node42" class="node"><title>\\Reaction\\I18n\\TranslatorInterface</title>
<ellipse fill="none" stroke="black" cx="1160.51" cy="-72" rx="172.769" ry="18"/>
<text text-anchor="middle" x="1160.51" y="-68.3" font-family="Times,serif" font-size="14.00" fill="gray">\Reaction\I18n\TranslatorInterface</text>
</g>
<!-- \\Reaction\\Base\\Model&#45;&gt;\\Reaction\\I18n\\TranslatorInterface -->
<g id="edge9" class="edge"><title>\\Reaction\\Base\\Model&#45;&gt;\\Reaction\\I18n\\TranslatorInterface</title>
<path fill="none" stroke="black" stroke-dasharray="1,5" d="M1570.6,-411.84C1542.41,-412.313 1498.07,-408.454 1471.69,-383 1377.98,-292.582 1497.78,-184.636 1399.69,-99 1370.77,-73.7512 1331.76,-63.194 1293.69,-60.0184"/>
<polygon fill="none" stroke="black" points="1293.72,-56.5131 1283.51,-59.3387 1293.26,-63.4975 1293.72,-56.5131"/>
</g>
<!-- \\ArrayAccess -->
<g id="node43" class="node"><title>\\ArrayAccess</title>
<ellipse fill="none" stroke="black" cx="1160.51" cy="-126" rx="72.5877" ry="18"/>
<text text-anchor="middle" x="1160.51" y="-122.3" font-family="Times,serif" font-size="14.00" fill="gray">\ArrayAccess</text>
</g>
<!-- \\Reaction\\Base\\Model&#45;&gt;\\ArrayAccess -->
<g id="edge10" class="edge"><title>\\Reaction\\Base\\Model&#45;&gt;\\ArrayAccess</title>
<path fill="none" stroke="black" stroke-dasharray="1,5" d="M1570.6,-411.562C1542.63,-411.764 1498.68,-407.643 1471.69,-383 1392.59,-310.774 1482.29,-221.194 1399.69,-153 1353.36,-114.749 1283.53,-111.055 1231.44,-115.106"/>
<polygon fill="none" stroke="black" points="1230.93,-111.638 1221.28,-116.011 1231.55,-118.61 1230.93,-111.638"/>
</g>
<!-- \\Reaction\\Base\\Link -->
<g id="node9" class="node"><title>\\Reaction\\Base\\Link</title>
<polygon fill="none" stroke="black" points="1187.51,-1148 1133.51,-1148 1133.51,-1112 1187.51,-1112 1187.51,-1148"/>
<text text-anchor="middle" x="1160.51" y="-1127.2" font-family="Courier,monospace" font-size="11.00">Link</text>
</g>
<!-- \\Reaction\\Base\\Link&#45;&gt;\\Reaction\\Base\\BaseObject -->
<g id="edge12" class="edge"><title>\\Reaction\\Base\\Link&#45;&gt;\\Reaction\\Base\\BaseObject</title>
<path fill="none" stroke="black" d="M1133.34,-1127.43C1047.79,-1119.04 775.375,-1092.31 660.779,-1081.06"/>
<polygon fill="none" stroke="black" points="660.812,-1077.55 650.518,-1080.05 660.129,-1084.51 660.812,-1077.55"/>
</g>
<!-- \\Reaction\\Base\\Component&#45;&gt;\\Reaction\\Base\\BaseObject -->
<g id="edge13" class="edge"><title>\\Reaction\\Base\\Component&#45;&gt;\\Reaction\\Base\\BaseObject</title>
<path fill="none" stroke="black" d="M1121.66,-804.101C1073.33,-803.042 987.996,-805.816 921.331,-833 796.73,-883.81 680.013,-999.197 632.106,-1050.54"/>
<polygon fill="none" stroke="black" points="629.498,-1048.21 625.28,-1057.93 634.638,-1052.96 629.498,-1048.21"/>
</g>
<!-- \\Reaction\\Events\\EventEmitterWildcardInterface -->
<g id="node44" class="node"><title>\\Reaction\\Events\\EventEmitterWildcardInterface</title>
<ellipse fill="none" stroke="black" cx="608.202" cy="-288" rx="241.257" ry="18"/>
<text text-anchor="middle" x="608.202" y="-284.3" font-family="Times,serif" font-size="14.00" fill="gray">\Reaction\Events\EventEmitterWildcardInterface</text>
</g>
<!-- \\Reaction\\Base\\Component&#45;&gt;\\Reaction\\Events\\EventEmitterWildcardInterface -->
<g id="edge14" class="edge"><title>\\Reaction\\Base\\Component&#45;&gt;\\Reaction\\Events\\EventEmitterWildcardInterface</title>
<path fill="none" stroke="black" stroke-dasharray="1,5" d="M1143.37,-787.919C1102.35,-741.327 992.315,-612.308 921.331,-491 880.922,-421.943 912.63,-374.939 849.331,-326 836.936,-316.417 823.087,-308.814 808.467,-302.819"/>
<polygon fill="none" stroke="black" points="809.346,-299.408 798.755,-299.107 806.846,-305.947 809.346,-299.408"/>
</g>
<!-- \\Reaction\\DI\\InjectionPossibleInterface -->
<g id="node45" class="node"><title>\\Reaction\\DI\\InjectionPossibleInterface</title>
<ellipse fill="none" stroke="black" cx="608.202" cy="-234" rx="194.166" ry="18"/>
<text text-anchor="middle" x="608.202" y="-230.3" font-family="Times,serif" font-size="14.00" fill="gray">\Reaction\DI\InjectionPossibleInterface</text>
</g>
<!-- \\Reaction\\Base\\Component&#45;&gt;\\Reaction\\DI\\InjectionPossibleInterface -->
<g id="edge15" class="edge"><title>\\Reaction\\Base\\Component&#45;&gt;\\Reaction\\DI\\InjectionPossibleInterface</title>
<path fill="none" stroke="black" stroke-dasharray="1,5" d="M1141.94,-787.682C1098.58,-741.547 985.345,-615.355 921.331,-491 872.306,-395.764 931.963,-329.157 849.331,-261 838.024,-251.674 825.331,-244.39 811.84,-238.766"/>
<polygon fill="none" stroke="black" points="812.971,-235.451 802.381,-235.132 810.461,-241.985 812.971,-235.451"/>
</g>
<!-- \\Reaction\\Base\\RequestAppComponent&#45;&gt;\\Reaction\\Base\\Component -->
<g id="edge18" class="edge"><title>\\Reaction\\Base\\RequestAppComponent&#45;&gt;\\Reaction\\Base\\Component</title>
<path fill="none" stroke="black" d="M1525.27,-904.089C1507.28,-900.117 1488.36,-894.608 1471.69,-887 1435.3,-870.396 1436.86,-847.77 1399.69,-833 1337.22,-808.182 1258.77,-803.933 1209.37,-804.177"/>
<polygon fill="none" stroke="black" points="1209.25,-800.678 1199.29,-804.291 1209.33,-807.677 1209.25,-800.678"/>
</g>
<!-- \\Reaction\\Base\\RequestAppComponentInterface -->
<g id="node25" class="node"><title>\\Reaction\\Base\\RequestAppComponentInterface</title>
<polygon fill="none" stroke="black" points="1263.51,-374 1057.51,-374 1057.51,-338 1263.51,-338 1263.51,-374"/>
<text text-anchor="middle" x="1160.51" y="-353.2" font-family="Courier,monospace" font-size="11.00">RequestAppComponentInterface</text>
</g>
<!-- \\Reaction\\Base\\RequestAppComponent&#45;&gt;\\Reaction\\Base\\RequestAppComponentInterface -->
<g id="edge19" class="edge"><title>\\Reaction\\Base\\RequestAppComponent&#45;&gt;\\Reaction\\Base\\RequestAppComponentInterface</title>
<path fill="none" stroke="black" stroke-dasharray="1,5" d="M1525.05,-913.244C1505.26,-909.48 1485.47,-901.792 1471.69,-887 1317.44,-721.446 1561.99,-540.662 1399.69,-383 1366.87,-351.123 1318.32,-341.645 1273.59,-341.206"/>
<polygon fill="none" stroke="black" points="1273.5,-337.707 1263.52,-341.256 1273.54,-344.707 1273.5,-337.707"/>
</g>
<!-- \\Reaction\\I18n\\RequestLanguageGetterInterface -->
<g id="node47" class="node"><title>\\Reaction\\I18n\\RequestLanguageGetterInterface</title>
<ellipse fill="none" stroke="black" cx="1160.51" cy="-180" rx="239.358" ry="18"/>
<text text-anchor="middle" x="1160.51" y="-176.3" font-family="Times,serif" font-size="14.00" fill="gray">\Reaction\I18n\RequestLanguageGetterInterface</text>
</g>
<!-- \\Reaction\\Base\\RequestAppComponent&#45;&gt;\\Reaction\\I18n\\RequestLanguageGetterInterface -->
<g id="edge20" class="edge"><title>\\Reaction\\Base\\RequestAppComponent&#45;&gt;\\Reaction\\I18n\\RequestLanguageGetterInterface</title>
<path fill="none" stroke="black" stroke-dasharray="1,5" d="M1525.03,-913.615C1505.13,-909.885 1485.27,-902.123 1471.69,-887 1370.14,-773.954 1506.74,-314.845 1399.69,-207 1394.71,-201.989 1389.35,-197.524 1383.68,-193.555"/>
<polygon fill="none" stroke="black" points="1385.46,-190.537 1375.15,-188.087 1381.68,-196.43 1385.46,-190.537"/>
</g>
<!-- \\Reaction\\Base\\ConfigReader -->
<g id="node12" class="node"><title>\\Reaction\\Base\\ConfigReader</title>
<polygon fill="none" stroke="black" points="1209.51,-1094 1111.51,-1094 1111.51,-1058 1209.51,-1058 1209.51,-1094"/>
<text text-anchor="middle" x="1160.51" y="-1073.2" font-family="Courier,monospace" font-size="11.00">ConfigReader</text>
</g>
<!-- \\Reaction\\Base\\ConfigReader&#45;&gt;\\Reaction\\Base\\BaseObject -->
<g id="edge21" class="edge"><title>\\Reaction\\Base\\ConfigReader&#45;&gt;\\Reaction\\Base\\BaseObject</title>
<path fill="none" stroke="black" d="M1111.16,-1076C1007.85,-1076 766.421,-1076 660.525,-1076"/>
<polygon fill="none" stroke="black" points="660.408,-1072.5 650.407,-1076 660.407,-1079.5 660.408,-1072.5"/>
</g>
<!-- \\Reaction\\Base\\AnnotationsReader -->
<g id="node13" class="node"><title>\\Reaction\\Base\\AnnotationsReader</title>
<polygon fill="none" stroke="black" points="1226.01,-986 1095.01,-986 1095.01,-950 1226.01,-950 1226.01,-986"/>
<text text-anchor="middle" x="1160.51" y="-965.2" font-family="Courier,monospace" font-size="11.00">AnnotationsReader</text>
</g>
<!-- \\Reaction\\Base\\AnnotationsReader&#45;&gt;\\Reaction\\Base\\BaseObject -->
<g id="edge22" class="edge"><title>\\Reaction\\Base\\AnnotationsReader&#45;&gt;\\Reaction\\Base\\BaseObject</title>
<path fill="none" stroke="black" d="M1094.95,-972.838C1046.83,-977.045 979.638,-984.185 921.331,-995 828.257,-1012.26 721.965,-1042.06 660.521,-1060.3"/>
<polygon fill="none" stroke="black" points="659.267,-1057.02 650.686,-1063.23 661.269,-1063.73 659.267,-1057.02"/>
</g>
<!-- \\Reaction\\Base\\Security -->
<g id="node14" class="node"><title>\\Reaction\\Base\\Security</title>
<polygon fill="none" stroke="black" points="1633.28,-1094 1562.28,-1094 1562.28,-1058 1633.28,-1058 1633.28,-1094"/>
<text text-anchor="middle" x="1597.78" y="-1073.2" font-family="Courier,monospace" font-size="11.00">Security</text>
</g>
<!-- \\Reaction\\Base\\Security&#45;&gt;\\Reaction\\Base\\Component -->
<g id="edge23" class="edge"><title>\\Reaction\\Base\\Security&#45;&gt;\\Reaction\\Base\\Component</title>
<path fill="none" stroke="black" d="M1562.13,-1077.36C1534.41,-1076.58 1496.26,-1071.02 1471.69,-1049 1396.34,-981.456 1478.31,-896.705 1399.69,-833 1346.03,-789.527 1261.87,-791.067 1209.28,-797.532"/>
<polygon fill="none" stroke="black" points="1208.65,-794.085 1199.21,-798.879 1209.58,-801.023 1208.65,-794.085"/>
</g>
<!-- \\Reaction\\Base\\ViewRenderer -->
<g id="node15" class="node"><title>\\Reaction\\Base\\ViewRenderer</title>
<polygon fill="none" stroke="black" points="1646.78,-986 1548.78,-986 1548.78,-950 1646.78,-950 1646.78,-986"/>
<text text-anchor="start" x="1563.78" y="-971.2" font-family="Courier,monospace" font-size="11.00">«abstract»</text>
<text text-anchor="start" x="1556.78" y="-959.2" font-family="Courier,monospace" font-size="11.00">ViewRenderer</text>
</g>
<!-- \\Reaction\\Base\\ViewRenderer&#45;&gt;\\Reaction\\Base\\Component -->
<g id="edge24" class="edge"><title>\\Reaction\\Base\\ViewRenderer&#45;&gt;\\Reaction\\Base\\Component</title>
<path fill="none" stroke="black" d="M1548.56,-966.125C1523.8,-963.156 1494.19,-956.315 1471.69,-941 1424,-908.537 1448.93,-863.047 1399.69,-833 1341.53,-797.514 1260.34,-796.374 1209.37,-800.163"/>
<polygon fill="none" stroke="black" points="1208.96,-796.685 1199.28,-801.006 1209.54,-803.661 1208.96,-796.685"/>
</g>
<!-- \\Reaction\\Base\\Widget -->
<g id="node16" class="node"><title>\\Reaction\\Base\\Widget</title>
<polygon fill="none" stroke="black" points="1933.87,-905 1876.87,-905 1876.87,-869 1933.87,-869 1933.87,-905"/>
<text text-anchor="middle" x="1905.37" y="-884.2" font-family="Courier,monospace" font-size="11.00">Widget</text>
</g>
<!-- \\Reaction\\Base\\Widget&#45;&gt;\\Reaction\\Base\\RequestAppComponent -->
<g id="edge25" class="edge"><title>\\Reaction\\Base\\Widget&#45;&gt;\\Reaction\\Base\\RequestAppComponent</title>
<path fill="none" stroke="black" d="M1876.71,-889.444C1832.85,-893.319 1745.65,-901.023 1680.56,-906.774"/>
<polygon fill="none" stroke="black" points="1679.97,-903.313 1670.31,-907.68 1680.58,-910.286 1679.97,-903.313"/>
</g>
<!-- \\Reaction\\Base\\ViewContextInterface -->
<g id="node28" class="node"><title>\\Reaction\\Base\\ViewContextInterface</title>
<polygon fill="none" stroke="black" points="1673.78,-878 1521.78,-878 1521.78,-842 1673.78,-842 1673.78,-878"/>
<text text-anchor="middle" x="1597.78" y="-857.2" font-family="Courier,monospace" font-size="11.00">ViewContextInterface</text>
</g>
<!-- \\Reaction\\Base\\Widget&#45;&gt;\\Reaction\\Base\\ViewContextInterface -->
<g id="edge26" class="edge"><title>\\Reaction\\Base\\Widget&#45;&gt;\\Reaction\\Base\\ViewContextInterface</title>
<path fill="none" stroke="black" stroke-dasharray="1,5" d="M1876.71,-884.556C1833.62,-880.749 1748.68,-873.245 1683.99,-867.529"/>
<polygon fill="none" stroke="black" points="1684.06,-864.022 1673.79,-866.628 1683.45,-870.995 1684.06,-864.022"/>
</g>
<!-- \\Reaction\\Base\\Theme -->
<g id="node17" class="node"><title>\\Reaction\\Base\\Theme</title>
<polygon fill="none" stroke="black" points="1624.78,-1040 1570.78,-1040 1570.78,-1004 1624.78,-1004 1624.78,-1040"/>
<text text-anchor="middle" x="1597.78" y="-1019.2" font-family="Courier,monospace" font-size="11.00">Theme</text>
</g>
<!-- \\Reaction\\Base\\Theme&#45;&gt;\\Reaction\\Base\\Component -->
<g id="edge27" class="edge"><title>\\Reaction\\Base\\Theme&#45;&gt;\\Reaction\\Base\\Component</title>
<path fill="none" stroke="black" d="M1570.63,-1022.95C1543.08,-1022.57 1499.87,-1017.91 1471.69,-995 1410.55,-945.299 1463.23,-879.593 1399.69,-833 1344.16,-792.28 1260.91,-792.919 1208.97,-798.464"/>
<polygon fill="none" stroke="black" points="1208.54,-794.99 1199.02,-799.628 1209.35,-801.943 1208.54,-794.99"/>
</g>
<!-- \\Reaction\\Base\\View -->
<g id="node18" class="node"><title>\\Reaction\\Base\\View</title>
<polygon fill="none" stroke="black" points="1624.78,-1202 1570.78,-1202 1570.78,-1166 1624.78,-1166 1624.78,-1202"/>
<text text-anchor="middle" x="1597.78" y="-1181.2" font-family="Courier,monospace" font-size="11.00">View</text>
</g>
<!-- \\Reaction\\Base\\View&#45;&gt;\\Reaction\\Base\\Component -->
<g id="edge28" class="edge"><title>\\Reaction\\Base\\View&#45;&gt;\\Reaction\\Base\\Component</title>
<path fill="none" stroke="black" d="M1570.71,-1185.98C1542.41,-1186.61 1497.77,-1182.92 1471.69,-1157 1367.06,-1053.01 1509.36,-931.647 1399.69,-833 1348.06,-786.559 1262.53,-789.191 1209.24,-796.653"/>
<polygon fill="none" stroke="black" points="1208.4,-793.24 1199.03,-798.196 1209.44,-800.162 1208.4,-793.24"/>
</g>
<!-- \\Reaction\\Base\\DynamicContentAwareInterface -->
<g id="node21" class="node"><title>\\Reaction\\Base\\DynamicContentAwareInterface</title>
<polygon fill="none" stroke="black" points="1263.51,-878 1057.51,-878 1057.51,-842 1263.51,-842 1263.51,-878"/>
<text text-anchor="middle" x="1160.51" y="-857.2" font-family="Courier,monospace" font-size="11.00">DynamicContentAwareInterface</text>
</g>
<!-- \\Reaction\\Base\\View&#45;&gt;\\Reaction\\Base\\DynamicContentAwareInterface -->
<g id="edge30" class="edge"><title>\\Reaction\\Base\\View&#45;&gt;\\Reaction\\Base\\DynamicContentAwareInterface</title>
<path fill="none" stroke="black" stroke-dasharray="1,5" d="M1570.66,-1185.78C1542.52,-1186.2 1498.22,-1182.29 1471.69,-1157 1381.79,-1071.32 1493.75,-968.098 1399.69,-887 1365.55,-857.566 1317.66,-848.206 1273.77,-847.202"/>
<polygon fill="none" stroke="black" points="1273.63,-843.701 1263.6,-847.114 1273.57,-850.7 1273.63,-843.701"/>
</g>
<!-- \\Reaction\\Base\\ViewInterface -->
<g id="node24" class="node"><title>\\Reaction\\Base\\ViewInterface</title>
<polygon fill="none" stroke="black" points="1212.51,-1040 1108.51,-1040 1108.51,-1004 1212.51,-1004 1212.51,-1040"/>
<text text-anchor="middle" x="1160.51" y="-1019.2" font-family="Courier,monospace" font-size="11.00">ViewInterface</text>
</g>
<!-- \\Reaction\\Base\\View&#45;&gt;\\Reaction\\Base\\ViewInterface -->
<g id="edge29" class="edge"><title>\\Reaction\\Base\\View&#45;&gt;\\Reaction\\Base\\ViewInterface</title>
<path fill="none" stroke="black" stroke-dasharray="1,5" d="M1570.6,-1183.94C1543.63,-1182.69 1501.44,-1177.25 1471.69,-1157 1424,-1124.54 1448.93,-1079.05 1399.69,-1049 1346.51,-1016.56 1274.09,-1012.82 1223.11,-1015.32"/>
<polygon fill="none" stroke="black" points="1222.67,-1011.84 1212.89,-1015.91 1223.08,-1018.82 1222.67,-1011.84"/>
</g>
<!-- \\Reaction\\Base\\RequestAppServiceLocator -->
<g id="node19" class="node"><title>\\Reaction\\Base\\RequestAppServiceLocator</title>
<polygon fill="none" stroke="black" points="1687.28,-374 1508.28,-374 1508.28,-338 1687.28,-338 1687.28,-374"/>
<text text-anchor="middle" x="1597.78" y="-353.2" font-family="Courier,monospace" font-size="11.00">RequestAppServiceLocator</text>
</g>
<!-- \\Reaction\\Base\\RequestAppServiceLocator&#45;&gt;\\Reaction\\Base\\RequestAppComponentInterface -->
<g id="edge32" class="edge"><title>\\Reaction\\Base\\RequestAppServiceLocator&#45;&gt;\\Reaction\\Base\\RequestAppComponentInterface</title>
<path fill="none" stroke="black" stroke-dasharray="1,5" d="M1508.17,-356C1440.51,-356 1346.81,-356 1273.89,-356"/>
<polygon fill="none" stroke="black" points="1273.74,-352.5 1263.74,-356 1273.74,-359.5 1273.74,-352.5"/>
</g>
<!-- \\Reaction\\Base\\RequestAppServiceLocator&#45;&gt;\\Reaction\\I18n\\RequestLanguageGetterInterface -->
<g id="edge33" class="edge"><title>\\Reaction\\Base\\RequestAppServiceLocator&#45;&gt;\\Reaction\\I18n\\RequestLanguageGetterInterface</title>
<path fill="none" stroke="black" stroke-dasharray="1,5" d="M1515.13,-337.97C1499.77,-332.236 1484.52,-324.748 1471.69,-315 1425.76,-280.098 1448.93,-237.047 1399.69,-207 1391.03,-201.717 1381.86,-197.195 1372.36,-193.337"/>
<polygon fill="none" stroke="black" points="1373.34,-189.966 1362.75,-189.697 1370.86,-196.513 1373.34,-189.966"/>
</g>
<!-- \\Reaction\\DI\\ServiceLocator -->
<g id="node48" class="node"><title>\\Reaction\\DI\\ServiceLocator</title>
<ellipse fill="none" stroke="black" cx="1160.51" cy="-18" rx="142.175" ry="18"/>
<text text-anchor="middle" x="1160.51" y="-14.3" font-family="Times,serif" font-size="14.00" fill="gray">\Reaction\DI\ServiceLocator</text>
</g>
<!-- \\Reaction\\Base\\RequestAppServiceLocator&#45;&gt;\\Reaction\\DI\\ServiceLocator -->
<g id="edge31" class="edge"><title>\\Reaction\\Base\\RequestAppServiceLocator&#45;&gt;\\Reaction\\DI\\ServiceLocator</title>
<path fill="none" stroke="black" d="M1508.19,-339.342C1494.58,-333.505 1481.74,-325.629 1471.69,-315 1386.37,-224.752 1493.75,-126.098 1399.69,-45 1364.67,-14.8095 1315.19,-5.73785 1270.4,-5.14082"/>
<polygon fill="none" stroke="black" points="1270.32,-1.64075 1260.32,-5.14531 1270.32,-8.64075 1270.32,-1.64075"/>
</g>
<!-- \\Reaction\\Base\\ComponentInitBlockingInterface -->
<g id="node23" class="node"><title>\\Reaction\\Base\\ComponentInitBlockingInterface</title>
<polygon fill="none" stroke="black" points="2014.87,-698 1795.87,-698 1795.87,-662 2014.87,-662 2014.87,-698"/>
<text text-anchor="middle" x="1905.37" y="-677.2" font-family="Courier,monospace" font-size="11.00">ComponentInitBlockingInterface</text>
</g>
<!-- \\Reaction\\Base\\ComponentAutoloadInterface -->
<g id="node29" class="node"><title>\\Reaction\\Base\\ComponentAutoloadInterface</title>
<polygon fill="none" stroke="black" points="2001.37,-644 1809.37,-644 1809.37,-608 2001.37,-608 2001.37,-644"/>
<text text-anchor="middle" x="1905.37" y="-623.2" font-family="Courier,monospace" font-size="11.00">ComponentAutoloadInterface</text>
</g>
<!-- \\Reaction\\Base\\Linkable -->
<g id="node30" class="node"><title>\\Reaction\\Base\\Linkable</title>
<polygon fill="none" stroke="black" points="1940.87,-590 1869.87,-590 1869.87,-554 1940.87,-554 1940.87,-590"/>
<text text-anchor="middle" x="1905.37" y="-569.2" font-family="Courier,monospace" font-size="11.00">Linkable</text>
</g>
<!-- \\Reaction\\Base\\ArrayableTrait -->
<g id="node31" class="node"><title>\\Reaction\\Base\\ArrayableTrait</title>
<polygon fill="none" stroke="black" points="1960.87,-536 1849.87,-536 1849.87,-500 1960.87,-500 1960.87,-536"/>
<text text-anchor="middle" x="1905.37" y="-515.2" font-family="Courier,monospace" font-size="11.00">ArrayableTrait</text>
</g>
<!-- \\Reaction\\Base\\DynamicContentAwareTrait -->
<g id="node32" class="node"><title>\\Reaction\\Base\\DynamicContentAwareTrait</title>
<polygon fill="none" stroke="black" points="1994.87,-482 1815.87,-482 1815.87,-446 1994.87,-446 1994.87,-482"/>
<text text-anchor="middle" x="1905.37" y="-461.2" font-family="Courier,monospace" font-size="11.00">DynamicContentAwareTrait</text>
</g>
<!-- \\Reaction\\Base\\StaticInstanceTrait -->
<g id="node33" class="node"><title>\\Reaction\\Base\\StaticInstanceTrait</title>
<polygon fill="none" stroke="black" points="1977.87,-428 1832.87,-428 1832.87,-392 1977.87,-392 1977.87,-428"/>
<text text-anchor="middle" x="1905.37" y="-407.2" font-family="Courier,monospace" font-size="11.00">StaticInstanceTrait</text>
</g>
<!-- \\Reaction\\Base\\ArrayAccessTrait -->
<g id="node34" class="node"><title>\\Reaction\\Base\\ArrayAccessTrait</title>
<polygon fill="none" stroke="black" points="1967.87,-374 1842.87,-374 1842.87,-338 1967.87,-338 1967.87,-374"/>
<text text-anchor="middle" x="1905.37" y="-353.2" font-family="Courier,monospace" font-size="11.00">ArrayAccessTrait</text>
</g>
<!-- \\Reaction\\Cache\\ArrayCache -->
<g id="node35" class="node"><title>\\Reaction\\Cache\\ArrayCache</title>
<polygon fill="none" stroke="black" points="1639.78,-1282 1555.78,-1282 1555.78,-1246 1639.78,-1246 1639.78,-1282"/>
<text text-anchor="middle" x="1597.78" y="-1261.2" font-family="Courier,monospace" font-size="11.00">ArrayCache</text>
</g>
<!-- \\Reaction\\Cache\\ExtendedCache -->
<g id="node37" class="node"><title>\\Reaction\\Cache\\ExtendedCache</title>
<polygon fill="none" stroke="black" points="1212.51,-1282 1108.51,-1282 1108.51,-1246 1212.51,-1246 1212.51,-1282"/>
<text text-anchor="start" x="1126.51" y="-1267.2" font-family="Courier,monospace" font-size="11.00">«abstract»</text>
<text text-anchor="start" x="1116.51" y="-1255.2" font-family="Courier,monospace" font-size="11.00">ExtendedCache</text>
</g>
<!-- \\Reaction\\Cache\\ArrayCache&#45;&gt;\\Reaction\\Cache\\ExtendedCache -->
<g id="edge34" class="edge"><title>\\Reaction\\Cache\\ArrayCache&#45;&gt;\\Reaction\\Cache\\ExtendedCache</title>
<path fill="none" stroke="black" d="M1555.44,-1264C1478.4,-1264 1312.58,-1264 1222.6,-1264"/>
<polygon fill="none" stroke="black" points="1222.54,-1260.5 1212.54,-1264 1222.54,-1267.5 1222.54,-1260.5"/>
</g>
<!-- \\Reaction\\Cache\\ExpiringCache -->
<g id="node36" class="node"><title>\\Reaction\\Cache\\ExpiringCache</title>
<polygon fill="none" stroke="black" points="1649.78,-1336 1545.78,-1336 1545.78,-1300 1649.78,-1300 1649.78,-1336"/>
<text text-anchor="start" x="1563.78" y="-1321.2" font-family="Courier,monospace" font-size="11.00">«abstract»</text>
<text text-anchor="start" x="1553.78" y="-1309.2" font-family="Courier,monospace" font-size="11.00">ExpiringCache</text>
</g>
<!-- \\Reaction\\Cache\\ExpiringCache&#45;&gt;\\Reaction\\Cache\\ExtendedCache -->
<g id="edge35" class="edge"><title>\\Reaction\\Cache\\ExpiringCache&#45;&gt;\\Reaction\\Cache\\ExtendedCache</title>
<path fill="none" stroke="black" d="M1545.78,-1310.68C1506.01,-1305.06 1449.38,-1297.22 1399.69,-1291 1339.55,-1283.47 1270.75,-1275.77 1222.61,-1270.53"/>
<polygon fill="none" stroke="black" points="1222.98,-1267.05 1212.66,-1269.45 1222.22,-1274.01 1222.98,-1267.05"/>
</g>
<!-- \\Reaction\\Cache\\ExpiringCacheInterface -->
<g id="node39" class="node"><title>\\Reaction\\Cache\\ExpiringCacheInterface</title>
<polygon fill="none" stroke="black" points="1243.01,-1336 1078.01,-1336 1078.01,-1300 1243.01,-1300 1243.01,-1336"/>
<text text-anchor="middle" x="1160.51" y="-1315.2" font-family="Courier,monospace" font-size="11.00">ExpiringCacheInterface</text>
</g>
<!-- \\Reaction\\Cache\\ExpiringCache&#45;&gt;\\Reaction\\Cache\\ExpiringCacheInterface -->
<g id="edge36" class="edge"><title>\\Reaction\\Cache\\ExpiringCache&#45;&gt;\\Reaction\\Cache\\ExpiringCacheInterface</title>
<path fill="none" stroke="black" stroke-dasharray="1,5" d="M1545.57,-1318C1473.83,-1318 1342.27,-1318 1253.36,-1318"/>
<polygon fill="none" stroke="black" points="1253.28,-1314.5 1243.28,-1318 1253.27,-1321.5 1253.28,-1314.5"/>
</g>
<!-- \\Reaction\\Cache\\ExtendedCache&#45;&gt;\\Reaction\\Base\\BaseObject -->
<g id="edge37" class="edge"><title>\\Reaction\\Cache\\ExtendedCache&#45;&gt;\\Reaction\\Base\\BaseObject</title>
<path fill="none" stroke="black" d="M1108.27,-1262.6C1059.31,-1260.09 983.901,-1253.15 921.331,-1234 815.208,-1201.53 701.561,-1134.92 645.197,-1099.44"/>
<polygon fill="none" stroke="black" points="646.972,-1096.42 636.652,-1094.03 643.225,-1102.34 646.972,-1096.42"/>
</g>
<!-- \\Reaction\\Cache\\ExtendedCacheInterface -->
<g id="node40" class="node"><title>\\Reaction\\Cache\\ExtendedCacheInterface</title>
<polygon fill="none" stroke="black" points="690.702,-1282 525.702,-1282 525.702,-1246 690.702,-1246 690.702,-1282"/>
<text text-anchor="middle" x="608.202" y="-1261.2" font-family="Courier,monospace" font-size="11.00">ExtendedCacheInterface</text>
</g>
<!-- \\Reaction\\Cache\\ExtendedCache&#45;&gt;\\Reaction\\Cache\\ExtendedCacheInterface -->
<g id="edge38" class="edge"><title>\\Reaction\\Cache\\ExtendedCache&#45;&gt;\\Reaction\\Cache\\ExtendedCacheInterface</title>
<path fill="none" stroke="black" stroke-dasharray="1,5" d="M1108.23,-1264C1015.38,-1264 818.211,-1264 701.426,-1264"/>
<polygon fill="none" stroke="black" points="701.077,-1260.5 691.077,-1264 701.076,-1267.5 701.077,-1260.5"/>
</g>
<!-- \\Reaction\\Cache\\ArrayExpiringCache -->
<g id="node38" class="node"><title>\\Reaction\\Cache\\ArrayExpiringCache</title>
<polygon fill="none" stroke="black" points="1974.37,-1336 1836.37,-1336 1836.37,-1300 1974.37,-1300 1974.37,-1336"/>
<text text-anchor="middle" x="1905.37" y="-1315.2" font-family="Courier,monospace" font-size="11.00">ArrayExpiringCache</text>
</g>
<!-- \\Reaction\\Cache\\ArrayExpiringCache&#45;&gt;\\Reaction\\Cache\\ExpiringCache -->
<g id="edge39" class="edge"><title>\\Reaction\\Cache\\ArrayExpiringCache&#45;&gt;\\Reaction\\Cache\\ExpiringCache</title>
<path fill="none" stroke="black" d="M1836.17,-1318C1783.5,-1318 1711.27,-1318 1660.35,-1318"/>
<polygon fill="none" stroke="black" points="1660.14,-1314.5 1650.14,-1318 1660.14,-1321.5 1660.14,-1314.5"/>
</g>
<!-- \\Reaction\\Cache\\ExpiringCacheInterface&#45;&gt;\\Reaction\\Cache\\ExtendedCacheInterface -->
<g id="edge41" class="edge"><title>\\Reaction\\Cache\\ExpiringCacheInterface&#45;&gt;\\Reaction\\Cache\\ExtendedCacheInterface</title>
<path fill="none" stroke="black" d="M1077.72,-1309.97C976.923,-1300.08 806.131,-1283.32 700.962,-1273"/>
<polygon fill="none" stroke="black" points="701.288,-1269.52 690.994,-1272.03 700.605,-1276.49 701.288,-1269.52"/>
</g>
<!-- \\React\\Cache\\CacheInterface -->
<g id="node50" class="node"><title>\\React\\Cache\\CacheInterface</title>
<ellipse fill="none" stroke="black" cx="147.537" cy="-288" rx="147.574" ry="18"/>
<text text-anchor="middle" x="147.537" y="-284.3" font-family="Times,serif" font-size="14.00" fill="gray">\React\Cache\CacheInterface</text>
</g>
<!-- \\Reaction\\Cache\\ExtendedCacheInterface&#45;&gt;\\React\\Cache\\CacheInterface -->
<g id="edge42" class="edge"><title>\\Reaction\\Cache\\ExtendedCacheInterface&#45;&gt;\\React\\Cache\\CacheInterface</title>
<path fill="none" stroke="black" d="M525.561,-1277.55C472.819,-1281.27 406.844,-1275.61 367.074,-1234 227.215,-1087.68 425.176,-481.06 295.074,-326 287.496,-316.968 278.074,-309.935 267.687,-304.477"/>
<polygon fill="none" stroke="black" points="268.872,-301.166 258.333,-300.075 265.891,-307.5 268.872,-301.166"/>
</g>
</g>
</svg>
